<mxfile host="Electron" modified="2023-04-25T00:28:56.899Z" agent="Mozilla/5.0 (Windows NT 10.0; Win64; x64) AppleWebKit/537.36 (KHTML, like Gecko) draw.io/21.1.2 Chrome/106.0.5249.199 Electron/21.4.3 Safari/537.36" etag="dbnIzQ7BE4QfQxhLpFu0" version="21.1.2" type="device">
  <diagram name="Página-1" id="ICmTTSHgSUVWY7dyy2KO">
    <mxGraphModel dx="1098" dy="648" grid="1" gridSize="10" guides="1" tooltips="1" connect="1" arrows="1" fold="1" page="1" pageScale="1" pageWidth="827" pageHeight="1169" math="0" shadow="0">
      <root>
        <mxCell id="0" />
        <mxCell id="1" parent="0" />
        <mxCell id="cUIzIBaVRy3PXbxNq-Nd-4" style="edgeStyle=orthogonalEdgeStyle;rounded=0;orthogonalLoop=1;jettySize=auto;html=1;entryX=0.5;entryY=1;entryDx=0;entryDy=0;" edge="1" parent="1" source="cUIzIBaVRy3PXbxNq-Nd-1" target="cUIzIBaVRy3PXbxNq-Nd-3">
          <mxGeometry relative="1" as="geometry" />
        </mxCell>
        <mxCell id="cUIzIBaVRy3PXbxNq-Nd-7" style="edgeStyle=orthogonalEdgeStyle;rounded=0;orthogonalLoop=1;jettySize=auto;html=1;entryX=1;entryY=0.5;entryDx=0;entryDy=0;" edge="1" parent="1" source="cUIzIBaVRy3PXbxNq-Nd-1" target="cUIzIBaVRy3PXbxNq-Nd-5">
          <mxGeometry relative="1" as="geometry" />
        </mxCell>
        <mxCell id="cUIzIBaVRy3PXbxNq-Nd-12" style="edgeStyle=orthogonalEdgeStyle;rounded=0;orthogonalLoop=1;jettySize=auto;html=1;entryX=1;entryY=0.5;entryDx=0;entryDy=0;" edge="1" parent="1" source="cUIzIBaVRy3PXbxNq-Nd-1" target="cUIzIBaVRy3PXbxNq-Nd-11">
          <mxGeometry relative="1" as="geometry" />
        </mxCell>
        <mxCell id="cUIzIBaVRy3PXbxNq-Nd-14" style="edgeStyle=orthogonalEdgeStyle;rounded=0;orthogonalLoop=1;jettySize=auto;html=1;entryX=0;entryY=0.5;entryDx=0;entryDy=0;" edge="1" parent="1" source="cUIzIBaVRy3PXbxNq-Nd-1" target="cUIzIBaVRy3PXbxNq-Nd-13">
          <mxGeometry relative="1" as="geometry" />
        </mxCell>
        <mxCell id="cUIzIBaVRy3PXbxNq-Nd-16" style="edgeStyle=orthogonalEdgeStyle;rounded=0;orthogonalLoop=1;jettySize=auto;html=1;entryX=0;entryY=0.5;entryDx=0;entryDy=0;" edge="1" parent="1" source="cUIzIBaVRy3PXbxNq-Nd-1" target="cUIzIBaVRy3PXbxNq-Nd-15">
          <mxGeometry relative="1" as="geometry" />
        </mxCell>
        <mxCell id="cUIzIBaVRy3PXbxNq-Nd-1" value="Plataforma" style="rounded=0;whiteSpace=wrap;html=1;" vertex="1" parent="1">
          <mxGeometry x="354" y="310" width="120" height="60" as="geometry" />
        </mxCell>
        <mxCell id="cUIzIBaVRy3PXbxNq-Nd-3" value="Informações pessoais" style="rounded=1;whiteSpace=wrap;html=1;" vertex="1" parent="1">
          <mxGeometry x="354" y="180" width="120" height="60" as="geometry" />
        </mxCell>
        <mxCell id="cUIzIBaVRy3PXbxNq-Nd-5" value="Formação acadêmica" style="rounded=1;whiteSpace=wrap;html=1;" vertex="1" parent="1">
          <mxGeometry x="180" y="230" width="120" height="60" as="geometry" />
        </mxCell>
        <mxCell id="cUIzIBaVRy3PXbxNq-Nd-11" value="Experiência profissionakl" style="rounded=1;whiteSpace=wrap;html=1;" vertex="1" parent="1">
          <mxGeometry x="180" y="390" width="120" height="60" as="geometry" />
        </mxCell>
        <mxCell id="cUIzIBaVRy3PXbxNq-Nd-13" value="Certificados" style="rounded=1;whiteSpace=wrap;html=1;" vertex="1" parent="1">
          <mxGeometry x="520" y="230" width="120" height="60" as="geometry" />
        </mxCell>
        <mxCell id="cUIzIBaVRy3PXbxNq-Nd-15" value="Trabalhos voluntarios" style="rounded=1;whiteSpace=wrap;html=1;" vertex="1" parent="1">
          <mxGeometry x="520" y="380" width="120" height="60" as="geometry" />
        </mxCell>
        <mxCell id="cUIzIBaVRy3PXbxNq-Nd-17" value="Redes sociais" style="rounded=1;whiteSpace=wrap;html=1;" vertex="1" parent="1">
          <mxGeometry x="234" y="470" width="120" height="60" as="geometry" />
        </mxCell>
        <mxCell id="cUIzIBaVRy3PXbxNq-Nd-18" value="Login (Gmail)" style="rounded=1;whiteSpace=wrap;html=1;" vertex="1" parent="1">
          <mxGeometry x="490" y="110" width="120" height="60" as="geometry" />
        </mxCell>
        <mxCell id="cUIzIBaVRy3PXbxNq-Nd-19" value="Instituições de ensino" style="rounded=1;whiteSpace=wrap;html=1;" vertex="1" parent="1">
          <mxGeometry x="474" y="480" width="120" height="60" as="geometry" />
        </mxCell>
        <mxCell id="cUIzIBaVRy3PXbxNq-Nd-20" value="Empresas" style="rounded=1;whiteSpace=wrap;html=1;" vertex="1" parent="1">
          <mxGeometry x="234" y="110" width="120" height="60" as="geometry" />
        </mxCell>
      </root>
    </mxGraphModel>
  </diagram>
</mxfile>
